<svg xmlns="http://www.w3.org/2000/svg" width="51" height="167" fill="none" viewBox="0 0 51 167">
    <path fill="#FDFDFD" fill-opacity=".41" d="M27.462 84.626c.991-1.954.303-3.854-.562-5.615-.842-1.708-.385-2.228 1.38-2.363 1.746-.13 3.544.395 3.886 1.886.447 1.954-.005 4.129-.192 6.203-.039.423-.602.822-.972 1.183-3.338 3.296-2.847 2.218-.587 6.424.65 1.212 1.876 2.122 2.838 3.17.909-1.231 2.17-2.347 2.63-3.728.53-1.579.366-3.393.458-5.11.029-.525-.101-1.054-.193-1.9 2.184.682 3.569 2.01 3.425 3.685-.193 2.247 1.27 3.454 2.342 4.672 2.886 3.281 2.135 8.247-.645 11.018-.543.544-1.986.818-2.645.481-1.698-.851-3.14-2.198-4.785-3.175-.731-.433-1.693-.578-2.564-.655-1.962-.173-3.968-.062-5.887-.423-.567-.106-.904-1.415-1.346-2.175.712-.197 1.419-.53 2.135-.568.967-.048 1.943.13 3.511.265-.928-1.477-1.505-2.382-2.063-3.291-.573-.938-1.13-1.886-1.9-3.185-2.448 2.083-4.81 4.027-7.099 6.057-1.443 1.28-2.722 2.733-4.165 4.013-2.342 2.079-5.136 1.117-5.752-1.948-1.255-6.27.481-11.813 4.107-16.903 1.76-2.469 3.468-4.976 5.2-7.468l-.5-.342c-1.905.462-3.786 1.117-5.714 1.304-1.015.097-2.112-.62-3.17-.972.443-1.03.606-2.396 1.37-3.04 4.757-3.99 9.654-7.805 14.492-11.698 1.125-.909 2.198-1.89 3.424-2.954-.885-.697-1.495-1.183-2.491-1.963 2.25-.318 4.083-.678 5.93-.77.577-.029 1.486.558 1.698 1.078.183.462-.221 1.453-.678 1.824-5.046 4.104-10.163 8.122-15.237 12.183-1.03.822-1.977 1.741-2.962 2.617.11.188.22.37.331.558 3.425-1.872 6.85-3.743 10.288-5.615 2.015 1.9 2.03 2.497-.38 3.541-2.92 1.266-4.223 3.73-5.488 6.39-.913 1.915-1.962 3.845-3.309 5.466-3.501 4.205-4.01 9.277-4.468 14.367-.149 1.68.775 2.146 2.242 1.223.432-.275.86-.573 1.245-.91 2.617-2.3 5.194-4.643 7.835-6.914 1.37-1.179 2.073-2.382 1.24-4.244-.47-1.058-.442-2.329-.822-3.44-.721-2.108-1.572-4.167-2.38-6.274 1.274-.53 2.885.433 4.03 2.882.818 1.751 1.457 3.584 2.174 5.38.25-.073.495-.15.745-.227zM30.685 119.587c1.702.847 2.991 1.333 4.069 2.107.336.246.38 1.444.086 1.91-.702 1.112-1.722 2.021-2.525 3.075-.264.346-.279.895-.404 1.347.524-.019 1.28.183 1.54-.091 1.13-1.174 2.115-2.488 3.472-4.143.596.553 1.784 1.251 2.27 2.281.24.505-.76 1.669-1.308 2.458-.327.472-.866.804-1.318 1.189-.962.803-.76 1.443-.014 2.406 2.486 3.219 5.708 4.556 9.695 4.277.587-.043 1.184.034 1.775.072.135.01.265.116.726.328-.668.731-1.188 1.501-1.89 2.03-2.265 1.718-8.59 1.174-10.547-.871-3.43-3.575-6.83-7.174-10.634-11.172-1.534 2.983-2.938 5.711-4.622 8.988 1.4-.13 2.232-.135 3.025-.303 1.082-.231 2.16-.871 3.204-.804.735.048 1.413.982 2.12 1.52-.524.395-1.005 1.035-1.582 1.146-2.28.428-4.574 1.405-6.906-.053-.327-.207-1.28.413-1.847.798-1.832 1.242-3.53 2.714-5.454 3.787-2.871 1.607-4.42 1.222-6.642-1.217-.78-.857-1.52-1.752-2.155-2.834 2.29.952 4.53 2.237 6.883.755 1.976-1.246 3.819-2.728 5.622-4.229 1.183-.982 1.034-2.016-.034-3.219-1.394-1.574-2.515-3.387-3.486-4.73 1.308.169 3.496-.029 5.497 1.237.476.303 1.573.548 1.64.418a16.585 16.585 0 0 0 1.39-3.43c.043-.154-.919-.645-1.457-.881-1.405-.616-2.838-1.174-4.257-1.756l.23-.808c.448 0 .915-.077 1.348.014 2.457.5 4.458-.048 6.156-2.05.543-.635 1.813-.928 2.732-.9 1.11.039 1.683.871 1.135 2.065-.125.264-.41.486-.453.755-.192 1.097-.317 2.204-.47 3.306.615.033 1.346.298 1.822.057 1.231-.625 2.193-1.549 1.76-3.175-.077-.279-.072-.573-.192-1.66zM9.98 22.008c-1.674.88-2.895 1.516-4.112 2.16-1.63.857-2.982.559-4.093-.923-1.135-1.511-.072-2.406.866-3.402 4.006-4.249 7.993-8.517 11.975-12.794.231-.245.351-.592.592-1.02-.717-.419-1.323-.77-2.482-1.448 2.477-.544 4.458-1.18 6.483-1.352 1.477-.125 1.939 1.833.717 3.204-1.376 1.55-2.939 2.93-4.367 4.436-1.972 2.079-3.896 4.21-6.04 6.535 1.394-.29 2.438-.65 3.49-.693 2.603-.101 3.367 1.024 2.53 3.584-.783 2.387-1.563 4.773-2.438 7.126-.38 1.02-.332 1.473.789 2.03.971.482 1.611 1.627 2.597 2.695 1.616-2.742 3.227-5.48 4.954-8.406 2.044 1.978.976 3.802.313 5.327-1.059 2.434-2.569 4.667-3.78 7.04-.751 1.471-1.242 3.078-1.982 4.56-.24.486-.856 1.016-1.366 1.097-2.121.323-3.814-2.02-3.136-4.06.351-1.064.409-2.228.616-3.412-4.483.154-5.45-1.28-3.968-5.206.524-1.38.923-2.815 1.327-4.239.202-.703.27-1.444.515-2.839z"/>
    <path fill="#FDFDFD" fill-opacity=".41" d="M26.981 148.793c1.14.308 1.809.539 2.497.669 1.793.332 2.164 1.135 1.163 2.742-.721 1.165-1.5 2.291-2.64 4.028 1.861-.154 3.131-.222 4.391-.371 1.101-.125 2.188-.476 3.285-.486 2.38-.019 3.915 1.502 4.006 3.811.048 1.213-.476 2.084-1.712 1.405-3.93-2.17-7.868-.582-11.697.029-3.689.592-7.233 2.045-10.85 3.099-1.91.553-3.516-.381-4.14-2.358 6.372-.472 12.87-4.234 14.187-8.521-.86.298-1.495.664-2.16.707-.754.048-1.947.058-2.192-.356-.352-.602-.217-1.684.081-2.406.294-.707 1.082-1.193 1.602-1.819.515-.62 1.125-1.236 1.414-1.963.62-1.573 1.063-3.214 1.66-5.09-1.275-.693-2.41.36-3.401 1.558-.75.905-1.246 2.036-2.035 2.897-.408.448-1.616.895-1.77.722-.528-.592-1.096-1.492-1.024-2.214.125-1.26.712-2.473 1.015-3.411 1.308-.361 2.496-.731 3.703-1.006 2.564-.591 5.122-1.255 7.72-1.616.697-.096 1.529.813 2.299 1.26-.4.534-.727 1.146-1.208 1.593-1.048.977-2.207 1.804-1.236 3.551.183.327-.284 1.184-.659 1.612-.534.635-1.274 1.102-2.299 1.934zM25.308 17.115c2.125 2.993 2.986 5.317 1.894 8.141-.432 1.116-.312 2.497-.245 3.743.159 3.109 2.222 5.057 5.324 5.038 1.39-.01 2.809-.106 4.165-.404 4.863-1.078 5.661-6.496 5.3-11.09-.288-3.677-.827-7.334-1.221-11-.048-.467.086-.953.202-2.093.716.953 1.082 1.424 1.433 1.905.467.65.78 1.564 1.41 1.92 4.212 2.401 5.112 6.072 5.088 10.667-.024 5-1.65 8.305-6.3 10.466-4.132 1.92-8.071 3.575-12.712 2.02-4.694-1.573-4.892-2.732-5.68-6.933-.337-1.795.336-3.777.49-5.678.101-1.246.03-2.506.154-3.748.087-.818.375-1.621.698-2.954z"/>
    <path fill="#FDFDFD" fill-opacity=".41" d="M25.736 8.733c2.15.221 4.3.462 6.454.66a5.18 5.18 0 0 0 1.54-.102c2.337-.481 3.308.327 2.721 2.704-.466 1.896-1.423 3.667-2.222 5.63.347.202.832.486 1.55.9-.318.654-.492 1.424-.968 1.876-.394.38-1.265.693-1.707.505-1.27-.534-2.55-1.188-3.607-2.06-1.467-1.207-.601-2.516.226-3.709.471-.674.976-1.323 1.289-1.751-2.04-1.487-3.819-2.781-5.598-4.076.115-.187.22-.38.322-.577zM12.409 58.181c.149 1.406.303 2.81.5 4.663 1.996-1.188 3.64-2.17 5.492-3.272-.182 3.541-1.947 5.822-4.424 7.573-2.386 1.69-3.867 1.18-4.593-1.963-.592-2.56.74-5.057 2.28-7.174l.745.173zM37.428 70.98c2.328-1.491 6.945.323 7.103 2.603.034.477-.543 1.3-1 1.444-.784.245-2.006.442-2.5.02-1.314-1.122-2.334-2.585-3.603-4.067z"/>
</svg>
