<svg width="35" height="242" viewBox="0 0 35 242" fill="none" xmlns="http://www.w3.org/2000/svg">
<path d="M15.5263 28.1505V4.8301C15.5263 4.61642 15.6624 4.43256 15.8617 4.36796L16.3527 4.21391C16.5374 4.15428 16.7367 4.22385 16.8582 4.3779C17.5874 5.30714 18.5061 6.17178 18.8415 7.23022C19.4346 9.0887 19.6825 11.0863 19.8672 13.0442C20.0374 14.853 20.5818 15.9064 22.5554 15.3201C24.0332 14.8828 25.5013 14.4157 26.9742 13.9635C27.1006 13.9237 27.2027 13.8343 27.261 13.715C27.4165 13.392 27.854 13.3523 28.0631 13.6455C28.7388 14.5995 29.5749 15.5834 29.4242 16.3686C29.186 17.6208 27.8783 19.3352 26.7603 19.5886C24.9082 20.006 22.8811 19.6184 20.8443 19.4743C20.5721 19.4544 20.3436 19.6781 20.3436 19.9563V28.0512C20.3436 28.2847 20.504 28.4835 20.7277 28.5282C24.704 29.2636 29.0013 29.3928 31.0672 34.3869C31.1839 34.6751 31.0186 35.0031 30.7172 35.0577C29.2346 35.341 27.8638 35.5994 26.527 35.8528C26.1478 35.1522 26.1575 35.172 25.7783 34.4714L25.8658 34.372C26.1186 34.0937 25.9533 33.6266 25.5742 33.5719C23.9554 33.3533 22.5263 33.1595 20.9318 32.9458C20.6353 32.9061 20.3776 33.1545 20.3971 33.4577C20.4992 34.8341 20.6353 36.0367 20.6013 37.2293C20.5575 38.8542 20.6158 40.5735 20.12 42.0792C18.8415 45.9502 15.8325 47.0534 12.8429 44.3601C10.1207 41.9053 7.75821 38.879 5.80404 35.7385C4.35543 33.4129 5.05057 32.1557 7.52487 31.1569C9.75126 30.2525 12.0846 29.6165 15.1908 28.6077C15.3902 28.5481 15.5263 28.3593 15.5263 28.1505ZM14.0971 38.9138C14.9721 38.5163 14.9818 38.5163 15.8568 38.1188C15.7547 36.6429 15.6526 35.1174 15.536 33.4129C15.5165 33.1048 15.2152 32.8912 14.9283 32.9806C13.4603 33.4378 12.2061 33.8254 10.7283 34.2825C10.3929 34.3869 10.2811 34.8142 10.5242 35.0776C11.8707 36.5236 13.0082 37.7461 14.0971 38.9138Z" fill="#BCA56F"/>
<path d="M22.5458 148.847C20.6694 149.454 19.4542 149.871 18.2243 150.234C15.5361 151.029 12.5903 149.439 11.9437 146.706C11.8465 146.303 12.8528 145.19 12.9597 145.24C15.7986 146.621 18.4576 145.101 21.1798 144.798C21.8993 144.718 22.7646 144.281 23.2944 144.554C24.7479 145.294 26.3861 146.08 27.2757 147.342C27.6743 147.913 26.7799 150.02 25.9243 150.82C22.6625 153.861 19.1722 156.649 15.5312 159.735C18.9535 158.339 22.1764 156.907 25.4819 155.735C26.4833 155.382 27.7764 155.536 28.8312 155.834C29.4486 156.008 30.2847 156.932 30.2653 157.494C30.2458 158.065 29.3757 158.731 28.7437 159.129C27.1639 160.113 25.4042 160.818 23.8924 161.897C17.6896 166.324 17.0868 172.426 22.2299 178.081C23.168 179.11 24.2132 180.034 25.1562 181.058C26.5319 182.553 25.9826 184.646 24.0236 184.581C22.3417 184.526 20.2611 183.826 19.1042 182.643C14.1847 177.624 12.3083 172.123 17.1451 163.288C14.7048 164.207 12.6632 164.987 10.6167 165.738C9.47915 166.155 8.35138 166.637 7.17499 166.881C5.88193 167.149 4.61804 167.209 4.10276 165.41C3.59235 163.616 4.23888 162.503 5.75554 161.807C11.6667 159.079 16.5618 154.92 21.209 150.408C21.559 150.075 21.8458 149.672 22.5458 148.847Z" fill="#BCA56F"/>
<path d="M12.0164 97.2472C11.5303 97.2373 11.3651 96.5714 11.7977 96.3428C16.0755 94.0421 19.1331 90.6332 20.6206 85.7684C21.8894 81.6191 22.3414 77.4201 21.1553 72.8435C21.0776 72.5503 20.747 72.4012 20.4796 72.5404C18.4137 73.6237 16.4838 74.697 14.481 75.6064C12.4296 76.5356 10.3296 77.445 8.16158 77.9966C6.40186 78.4438 4.89491 77.6338 4.63727 75.5865C4.54977 74.8958 4.98727 74.0709 5.3713 73.4199C5.4588 73.2758 6.32894 73.7131 6.83936 73.7131C7.447 73.7131 8.11783 73.6684 8.65255 73.405C10.9081 72.2969 13.1053 71.0745 15.356 69.9514C21.6026 66.8308 26.2401 69.3253 27.1928 76.3418C28.0387 82.5782 27.3046 88.407 22.5699 93.0234C19.5755 95.9552 16.0414 97.3168 12.0164 97.2472Z" fill="#BCA56F"/>
<path d="M15.2539 222.233C15.8664 218.183 16.6004 214.153 17.0622 210.088C17.5435 205.889 19.0747 201.814 18.1074 197.396C17.9032 196.467 19.5706 194.842 20.7032 193.988C21.2428 193.575 22.7303 193.923 23.4643 194.425C25.6081 195.881 26.4102 197.839 25.5352 200.597C24.1497 204.975 23.2747 209.526 21.8018 213.864C20.9171 216.463 19.3664 218.839 17.981 221.234C17.6018 221.89 16.7414 222.252 16.0997 222.749C15.8178 222.58 15.5359 222.406 15.2539 222.233Z" fill="#BCA56F"/>
<path d="M7.01463 121.427C7.4181 122.54 7.7681 123.152 7.85074 123.803C8.2688 127.082 9.09518 128.28 12.2792 128.608C16.0466 128.995 19.8771 128.742 23.6445 129.149C25.5355 129.353 27.5869 130.064 29.1181 131.182C30.9507 132.519 30.3285 134.849 28.1119 135.162C21.4375 136.101 14.8167 135.689 8.76949 132.375C4.87574 130.233 4.12227 125.572 7.01463 121.427Z" fill="#BCA56F"/>
<path d="M15.2785 115.638C18.2098 114.396 20.6063 113.377 23.0028 112.364C23.0271 112.12 23.0514 111.872 23.0758 111.628C17.6167 110.44 11.0591 111.121 9.52783 104.154C13.2903 104.84 17.3882 105.461 21.423 106.356C24.2035 106.972 26.4056 108.671 27.7764 111.28C28.773 113.178 28.0487 115.395 26.1091 115.559C22.716 115.847 19.2841 115.638 15.2785 115.638Z" fill="#BCA56F"/>
<path d="M19.5903 62.3933C15.4195 60.0975 13.582 57.7272 13.6549 55.7445C13.6646 55.4513 13.9466 55.2525 14.2237 55.3171C17.5292 56.0625 20.8396 56.7284 24.082 57.6328C25.0153 57.8962 25.8028 58.7111 26.6292 59.372C26.8188 59.5261 26.8771 59.7994 26.7508 60.0081C26.2403 60.833 25.8077 61.7771 25.0834 62.2691C23.0126 63.6753 20.791 64.858 18.5744 66.0109C17.9376 66.3438 17.1549 66.3836 16.4112 66.5078C16.2313 66.5376 16.0466 66.4631 15.9396 66.309L15.9202 66.2792C15.7695 66.0556 15.8278 65.7525 16.0466 65.6034C17.1744 64.8481 18.3167 64.0828 19.6195 63.2182C19.9209 63.0194 19.9063 62.5622 19.5903 62.3933Z" fill="#BCA56F"/>
<path d="M15.2151 224.732C17.6116 228.076 17.9616 231.262 17.2665 234.566C17.1061 235.321 16.0415 236.479 15.4922 236.42C14.2477 236.29 12.6338 235.843 11.9873 234.929C11.3359 234.01 11.2436 232.181 11.6762 231.063C12.4831 228.966 13.8491 227.097 15.2151 224.732Z" fill="#BCA56F"/>
</svg>
