<!DOCTYPE svg PUBLIC "-//W3C//DTD SVG 20010904//EN" "http://www.w3.org/TR/2001/REC-SVG-20010904/DTD/svg10.dtd">
<svg version="1.0" xmlns="http://www.w3.org/2000/svg" width="1500px" height="1500px" viewBox="0 0 15000 15000" preserveAspectRatio="xMidYMid meet">
<g id="layer101" fill="#ffffff" stroke="none">
 <path d="M8589 14825 c-106 -34 -197 -159 -219 -301 -6 -38 -69 -2013 -140 -4389 l-129 -4320 34 -2830 c18 -1557 34 -2831 34 -2832 1 -2 50 -3 110 -3 l110 0 5 42 c3 24 96 1301 206 2838 l200 2795 131 4320 c108 3564 129 4332 120 4390 -22 134 -81 224 -179 272 -46 23 -71 28 -146 30 -60 2 -107 -2 -137 -12z"/>
 <path d="M5934 14769 c-69 -26 -143 -105 -174 -184 -21 -52 -24 -81 -27 -210 -2 -82 50 -2047 117 -4365 l120 -4215 195 -2780 c107 -1529 197 -2811 201 -2849 l6 -68 108 4 c60 2 110 5 113 8 2 3 20 1296 41 2875 l37 2870 -120 4215 c-66 2318 -122 4260 -125 4316 -10 202 -91 343 -224 388 -66 23 -203 20 -268 -5z"/>
 </g>

</svg>